/* XPM */
static char * add_xpm[] = {
"32 32 126 2",
"  	c None",
". 	c #3A7CB2",
"+ 	c #367CB5",
"@ 	c #347BB4",
"# 	c #347AB4",
"$ 	c #4585BA",
"% 	c #C3D8E9",
"& 	c #FFFFFF",
"* 	c #C2D7E9",
"= 	c #E2F5FF",
"- 	c #DEF3FF",
"; 	c #377CB5",
"> 	c #E1F4FF",
", 	c #DCF1FF",
"' 	c #DDF1FF",
") 	c #DEF2FF",
"! 	c #DFF2FF",
"~ 	c #357BB4",
"{ 	c #DCF2FF",
"] 	c #DFF3FF",
"^ 	c #E5F7FF",
"/ 	c #EAFBFF",
"( 	c #DBF1FF",
"_ 	c #DBF0FF",
": 	c #E4F6FF",
"< 	c #75A7D1",
"[ 	c #3379B2",
"} 	c #DAF1FF",
"| 	c #DAF0FF",
"1 	c #E8FAFF",
"2 	c #3479B2",
"3 	c #4183B8",
"4 	c #367BB4",
"5 	c #D9F0FF",
"6 	c #D9EFFF",
"7 	c #377CB4",
"8 	c #4485BA",
"9 	c #D8F0FF",
"0 	c #D8EFFF",
"a 	c #E7FAFF",
"b 	c #387CB4",
"c 	c #D7EFFF",
"d 	c #D7EEFF",
"e 	c #E6F9FF",
"f 	c #367CB4",
"g 	c #FEFFFF",
"h 	c #D6EFFF",
"i 	c #D6EEFF",
"j 	c #397CB4",
"k 	c #FCFFFF",
"l 	c #D5EEFF",
"m 	c #D5EDFF",
"n 	c #E2F6FF",
"o 	c #E4F8FF",
"p 	c #E5F9FF",
"q 	c #EFFFFF",
"r 	c #3C7FB6",
"s 	c #4586BA",
"t 	c #FAFFFF",
"u 	c #DDF3FF",
"v 	c #73A6D1",
"w 	c #347AB2",
"x 	c #397DB4",
"y 	c #4384B9",
"z 	c #4687BB",
"A 	c #F8FFFF",
"B 	c #D4EDFF",
"C 	c #E0F5FF",
"D 	c #4787BB",
"E 	c #F4FEFF",
"F 	c #D3EDFF",
"G 	c #D4EEFF",
"H 	c #DFF5FF",
"I 	c #F2FDFF",
"J 	c #D2ECFF",
"K 	c #D9F1FF",
"L 	c #72A7D1",
"M 	c #357AB2",
"N 	c #3D7FB6",
"O 	c #EFFCFF",
"P 	c #D1ECFF",
"Q 	c #D0EBFF",
"R 	c #D8F1FF",
"S 	c #DDF4FF",
"T 	c #DEF6FF",
"U 	c #E0F7FF",
"V 	c #E9FDFF",
"W 	c #EDFAFF",
"X 	c #CFEAFF",
"Y 	c #EBF9FF",
"Z 	c #CFEBFF",
"` 	c #CEEAFF",
" .	c #D0ECFF",
"..	c #DCF4FF",
"+.	c #E8F8FF",
"@.	c #CDE9FF",
"#.	c #DBF3FF",
"$.	c #E3F6FF",
"%.	c #CEE9FF",
"&.	c #CCE8FF",
"*.	c #367AB2",
"=.	c #4283B8",
"-.	c #E0F6FF",
";.	c #CBE8FF",
">.	c #CCE9FF",
",.	c #D3EEFF",
"'.	c #6FA5D1",
").	c #DEF5FF",
"!.	c #CAE7FF",
"~.	c #D2EDFF",
"{.	c #D6F0FF",
"].	c #3A7EB5",
"^.	c #CCEAFF",
"/.	c #C9E7FF",
"(.	c #CAE8FF",
"_.	c #CBE9FF",
":.	c #3B79AC",
"<.	c #9FC8E9",
"[.	c #D4EFFF",
"}.	c #9EC8E9",
"|.	c #D8F3FF",
"1.	c #D6F2FF",
"2.	c #D6F1FF",
"3.	c #3A78AA",
"4.	c #3B7EB5",
"5.	c #3A7DB4",
"                                                                ",
"        . + @ # # # # # # # # # # # # # # # # # # @ + .         ",
"      $ % & & & & & & & & & & & & & & & & & & & & & & % $       ",
"    . * & = - - - - - - - - - - - - - - - - - - - - = & * .     ",
"    ; & > , ' ' ' ' ' ' ' ' ) ! ! ) ' ' ' ' ' ' ' ' , > & ;     ",
"    ~ & { , , , , , , , , ] ^ / / ^ ] , , , , , , , , { & ~     ",
"    ~ & ( _ _ _ _ _ _ _ , : < [ [ < : , _ _ _ _ _ _ _ ( & ~     ",
"    ~ & } | | | | | | | { 1 2 3 3 2 1 { | | | | | | | } & ~     ",
"    4 & 5 6 6 6 6 6 6 6 ( 1 7 8 8 7 1 ( 6 6 6 6 6 6 6 5 & 4     ",
"    4 & 9 0 0 0 0 0 0 0 } a b $ $ b a } 0 0 0 0 0 0 0 9 & 4     ",
"    4 & c d d d d d d d 5 e b $ $ b e 5 d d d d d d d c & 4     ",
"    f g h i i c 9 9 9 9 ( a j $ $ j a ( 9 9 9 9 c i i h g f     ",
"    f k l m 0 - n o o o p q r s s r q p o o o n - 0 m l k f     ",
"    f t l l u v w b b b x r y z z y r x b b b w v u l l t f     ",
"    7 A B m C 2 3 8 $ $ $ s z D D z s $ $ $ 8 3 2 C m B A 7     ",
"    7 E F G H 2 3 $ $ $ $ s z D D z s $ $ $ $ 3 2 H G F E 7     ",
"    7 I J J K L M b j j x N y z z y N x j j b M L K J J I 7     ",
"    7 O P Q F R S T T T U V N s s N V U T T T S R F Q P O 7     ",
"    7 W Q X X Q P P P P B H x $ $ x H B P P P P Q X X Q W 7     ",
"    b Y Z ` ` ` ` ` ` `  ...x $ $ x .. .` ` ` ` ` ` ` Z Y b     ",
"    b +.` @.@.@.@.@.@.@.Z #.x $ $ x #.Z @.@.@.@.@.@.@.` +.b     ",
"    b ^ Z @.@.@.@.@.@.@.Z #.j 8 8 j #.Z @.@.@.@.@.@.@.Z ^ b     ",
"    b $.%.&.&.&.&.&.&.&.%.K *.=.=.*.K %.&.&.&.&.&.&.&.%.$.b     ",
"    j -.@.;.;.;.;.;.;.;.>.,.'.*.*.'.,.>.;.;.;.;.;.;.;.@.-.j     ",
"    x ).&.!.!.!.!.!.!.!.!.@.~.{.{.~.@.!.!.!.!.!.!.!.!.&.).x     ",
"    ].T ^./././././././././.(._._.(./././././././././.^.T ].    ",
"    :.<.[.>.(.(.(.(.(.(.(.(.(.(.(.(.(.(.(.(.(.(.(.(.>.[.<.:.    ",
"      s }.|.1.2.2.2.2.2.2.2.2.2.2.2.2.2.2.2.2.2.2.1.|.}.s       ",
"        3.4.5.x x x x x x x x x x x x x x x x x x 5.4.3.        ",
"                                                                ",
"                                                                ",
"                                                                "};
