/* XPM */
static char * del_xpm[] = {
"32 32 97 2",
"  	c None",
". 	c #3A7CB2",
"+ 	c #367CB5",
"@ 	c #347BB4",
"# 	c #347AB4",
"$ 	c #4585BA",
"% 	c #C3D8E9",
"& 	c #FFFFFF",
"* 	c #C2D7E9",
"= 	c #E2F5FF",
"- 	c #DEF3FF",
"; 	c #377CB5",
"> 	c #E1F4FF",
", 	c #DCF1FF",
"' 	c #DDF1FF",
") 	c #357BB4",
"! 	c #DCF2FF",
"~ 	c #DBF1FF",
"{ 	c #DBF0FF",
"] 	c #DAF1FF",
"^ 	c #DAF0FF",
"/ 	c #367BB4",
"( 	c #D9F0FF",
"_ 	c #D9EFFF",
": 	c #D8F0FF",
"< 	c #D8EFFF",
"[ 	c #D7EFFF",
"} 	c #D7EEFF",
"| 	c #367CB4",
"1 	c #FEFFFF",
"2 	c #D6EFFF",
"3 	c #D6EEFF",
"4 	c #FCFFFF",
"5 	c #D5EEFF",
"6 	c #D5EDFF",
"7 	c #E2F6FF",
"8 	c #E4F8FF",
"9 	c #FAFFFF",
"0 	c #DDF3FF",
"a 	c #73A6D1",
"b 	c #347AB2",
"c 	c #387CB4",
"d 	c #377CB4",
"e 	c #F8FFFF",
"f 	c #D4EDFF",
"g 	c #E0F5FF",
"h 	c #3479B2",
"i 	c #4183B8",
"j 	c #4485BA",
"k 	c #F4FEFF",
"l 	c #D3EDFF",
"m 	c #D4EEFF",
"n 	c #DFF5FF",
"o 	c #F2FDFF",
"p 	c #D2ECFF",
"q 	c #D9F1FF",
"r 	c #72A7D1",
"s 	c #357AB2",
"t 	c #397CB4",
"u 	c #EFFCFF",
"v 	c #D1ECFF",
"w 	c #D0EBFF",
"x 	c #D8F1FF",
"y 	c #DDF4FF",
"z 	c #DEF6FF",
"A 	c #EDFAFF",
"B 	c #CFEAFF",
"C 	c #EBF9FF",
"D 	c #CFEBFF",
"E 	c #CEEAFF",
"F 	c #E8F8FF",
"G 	c #CDE9FF",
"H 	c #E5F7FF",
"I 	c #E3F6FF",
"J 	c #CEE9FF",
"K 	c #CCE8FF",
"L 	c #E0F6FF",
"M 	c #CBE8FF",
"N 	c #397DB4",
"O 	c #DEF5FF",
"P 	c #CAE7FF",
"Q 	c #3A7EB5",
"R 	c #CCEAFF",
"S 	c #C9E7FF",
"T 	c #3B79AC",
"U 	c #9FC8E9",
"V 	c #D4EFFF",
"W 	c #CCE9FF",
"X 	c #CAE8FF",
"Y 	c #4586BA",
"Z 	c #9EC8E9",
"` 	c #D8F3FF",
" .	c #D6F2FF",
"..	c #D6F1FF",
"+.	c #3A78AA",
"@.	c #3B7EB5",
"#.	c #3A7DB4",
"                                                                ",
"        . + @ # # # # # # # # # # # # # # # # # # @ + .         ",
"      $ % & & & & & & & & & & & & & & & & & & & & & & % $       ",
"    . * & = - - - - - - - - - - - - - - - - - - - - = & * .     ",
"    ; & > , ' ' ' ' ' ' ' ' ' ' ' ' ' ' ' ' ' ' ' ' , > & ;     ",
"    ) & ! , , , , , , , , , , , , , , , , , , , , , , ! & )     ",
"    ) & ~ { { { { { { { { { { { { { { { { { { { { { { ~ & )     ",
"    ) & ] ^ ^ ^ ^ ^ ^ ^ ^ ^ ^ ^ ^ ^ ^ ^ ^ ^ ^ ^ ^ ^ ^ ] & )     ",
"    / & ( _ _ _ _ _ _ _ _ _ _ _ _ _ _ _ _ _ _ _ _ _ _ ( & /     ",
"    / & : < < < < < < < < < < < < < < < < < < < < < < : & /     ",
"    / & [ } } } } } } } } } } } } } } } } } } } } } } [ & /     ",
"    | 1 2 3 3 [ : : : : : : : : : : : : : : : : [ 3 3 2 1 |     ",
"    | 4 5 6 < - 7 8 8 8 8 8 8 8 8 8 8 8 8 8 8 7 - < 6 5 4 |     ",
"    | 9 5 5 0 a b c c c c c c c c c c c c c c b a 0 5 5 9 |     ",
"    d e f 6 g h i j $ $ $ $ $ $ $ $ $ $ $ $ j i h g 6 f e d     ",
"    d k l m n h i $ $ $ $ $ $ $ $ $ $ $ $ $ $ i h n m l k d     ",
"    d o p p q r s c t t t t t t t t t t t t c s r q p p o d     ",
"    d u v w l x y z z z z z z z z z z z z z z y x l w v u d     ",
"    d A w B B w v v v v v v v v v v v v v v v v w B B w A d     ",
"    c C D E E E E E E E E E E E E E E E E E E E E E E D C c     ",
"    c F E G G G G G G G G G G G G G G G G G G G G G G E F c     ",
"    c H D G G G G G G G G G G G G G G G G G G G G G G D H c     ",
"    c I J K K K K K K K K K K K K K K K K K K K K K K J I c     ",
"    t L G M M M M M M M M M M M M M M M M M M M M M M G L t     ",
"    N O K P P P P P P P P P P P P P P P P P P P P P P K O N     ",
"    Q z R S S S S S S S S S S S S S S S S S S S S S S R z Q     ",
"    T U V W X X X X X X X X X X X X X X X X X X X X W V U T     ",
"      Y Z `  ..................................... .` Z Y       ",
"        +.@.#.N N N N N N N N N N N N N N N N N N #.@.+.        ",
"                                                                ",
"                                                                ",
"                                                                "};
