/* XPM */
static char * edit_xpm[] = {
"32 32 181 2",
"  	c None",
". 	c #3A7CB2",
"+ 	c #367CB5",
"@ 	c #347BB4",
"# 	c #347AB4",
"$ 	c #4585BA",
"% 	c #C3D8E9",
"& 	c #FFFFFF",
"* 	c #C2D7E9",
"= 	c #E2F5FF",
"- 	c #DEF3FF",
"; 	c #DFF4FF",
"> 	c #E0F4FF",
", 	c #377CB5",
"' 	c #E1F4FF",
") 	c #DCF1FF",
"! 	c #DDF1FF",
"~ 	c #E0F3FF",
"{ 	c #E6F7FF",
"] 	c #EAFAFF",
"^ 	c #357BB4",
"/ 	c #DCF2FF",
"( 	c #DDF2FF",
"_ 	c #EAFBFF",
": 	c #77AAD2",
"< 	c #3379B2",
"[ 	c #DBF1FF",
"} 	c #DBF0FF",
"| 	c #DCF0FF",
"1 	c #E9FAFF",
"2 	c #7AAAD3",
"3 	c #3B7FB6",
"4 	c #4284B9",
"5 	c #3B7EB5",
"6 	c #77A9D2",
"7 	c #E4F6FF",
"8 	c #DAF1FF",
"9 	c #DAF0FF",
"0 	c #DFF3FF",
"a 	c #E8FAFF",
"b 	c #79ABD3",
"c 	c #3C7FB6",
"d 	c #4485B9",
"e 	c #4787BB",
"f 	c #4687BB",
"g 	c #3479B2",
"h 	c #E7F9FF",
"i 	c #367BB4",
"j 	c #D9F0FF",
"k 	c #D9EFFF",
"l 	c #DAEFFF",
"m 	c #DEF2FF",
"n 	c #E6F8FF",
"o 	c #D8F0FF",
"p 	c #D8EFFF",
"q 	c #E6F9FF",
"r 	c #78ABD3",
"s 	c #76A9D2",
"t 	c #E1F5FF",
"u 	c #D7EFFF",
"v 	c #D7EEFF",
"w 	c #D8EEFF",
"x 	c #E5F8FF",
"y 	c #367CB4",
"z 	c #FEFFFF",
"A 	c #D6EFFF",
"B 	c #D6EEFF",
"C 	c #E4F8FF",
"D 	c #FCFFFF",
"E 	c #D5EEFF",
"F 	c #D5EDFF",
"G 	c #D6EDFF",
"H 	c #E3F7FF",
"I 	c #77AAD3",
"J 	c #FAFFFF",
"K 	c #D4EDFF",
"L 	c #E2F7FF",
"M 	c #377CB4",
"N 	c #F8FFFF",
"O 	c #D3ECFF",
"P 	c #D4ECFF",
"Q 	c #E1F6FF",
"R 	c #78AAD3",
"S 	c #F4FEFF",
"T 	c #D3EDFF",
"U 	c #D2ECFF",
"V 	c #E0F6FF",
"W 	c #76AAD3",
"X 	c #F2FDFF",
"Y 	c #D1EBFF",
"Z 	c #DEF4FF",
"` 	c #DFF5FF",
" .	c #D2EBFF",
"..	c #EFFCFF",
"+.	c #D1ECFF",
"@.	c #D0EBFF",
"#.	c #D2EDFF",
"$.	c #D9F1FF",
"%.	c #72A7D1",
"&.	c #3A7EB5",
"*.	c #4484B9",
"=.	c #3D7FB6",
"-.	c #75AAD3",
";.	c #DEF5FF",
">.	c #D4EEFF",
",.	c #EDFAFF",
"'.	c #CFEAFF",
").	c #E0F7FF",
"!.	c #78AAD4",
"~.	c #3E80B6",
"{.	c #4485BA",
"].	c #76A9D3",
"^.	c #DCF4FF",
"/.	c #D0EAFF",
"(.	c #387CB4",
"_.	c #EBF9FF",
":.	c #CFEBFF",
"<.	c #D4EFFF",
"[.	c #9CC5E6",
"}.	c #3379B1",
"|.	c #7FB0D8",
"1.	c #82B2D9",
"2.	c #4182B8",
"3.	c #DBF4FF",
"4.	c #CEEAFF",
"5.	c #E8F8FF",
"6.	c #D8F1FF",
"7.	c #619AC8",
"8.	c #3F81B7",
"9.	c #4082B7",
"0.	c #81B2DA",
"a.	c #81B2D9",
"b.	c #74A9D3",
"c.	c #DAF3FF",
"d.	c #CEE9FF",
"e.	c #CDE9FF",
"f.	c #E5F7FF",
"g.	c #C8E6FD",
"h.	c #3A7DB4",
"i.	c #7EB0D8",
"j.	c #77ABD4",
"k.	c #70A6D1",
"l.	c #DAF2FF",
"m.	c #E3F6FF",
"n.	c #7EAFD8",
"o.	c #3479B1",
"p.	c #DDF4FF",
"q.	c #CDE8FF",
"r.	c #CCE8FF",
"s.	c #397CB4",
"t.	c #CEEBFF",
"u.	c #D6F0FF",
"v.	c #3E81B6",
"w.	c #3A7EB4",
"x.	c #6099C8",
"y.	c #99C4E6",
"z.	c #CDEAFF",
"A.	c #CBE8FF",
"B.	c #397DB4",
"C.	c #D3EEFF",
"D.	c #2E74AE",
"E.	c #C4E4FD",
"F.	c #D5EFFF",
"G.	c #D0ECFF",
"H.	c #CCE9FF",
"I.	c #CAE7FF",
"J.	c #DEF6FF",
"K.	c #D2EEFF",
"L.	c #D1EDFF",
"M.	c #CBE9FF",
"N.	c #CAE8FF",
"O.	c #C9E7FF",
"P.	c #CCEAFF",
"Q.	c #3B79AC",
"R.	c #9FC8E9",
"S.	c #4586BA",
"T.	c #9EC8E9",
"U.	c #D8F3FF",
"V.	c #D6F2FF",
"W.	c #D6F1FF",
"X.	c #3A78AA",
"                                                                ",
"        . + @ # # # # # # # # # # # # # # # # # # @ + .         ",
"      $ % & & & & & & & & & & & & & & & & & & & & & & % $       ",
"    . * & = - - - - - - - - - - - - - - - ; > > ; - = & * .     ",
"    , & ' ) ! ! ! ! ! ! ! ! ! ! ! ! ! ! ~ { ] ] { ~ ! ' & ,     ",
"    ^ & / ) ) ) ) ) ) ) ) ) ) ) ) ) ( ' _ : < < : _ ; / & ^     ",
"    ^ & [ } } } } } } } } } } } } | ~ 1 2 3 4 4 5 6 7 ( & ^     ",
"    ^ & 8 9 9 9 9 9 9 9 9 9 9 9 [ 0 a b c d e f 4 g h / & ^     ",
"    i & j k k k k k k k k k k l m h b c d e e e 4 g n [ & i     ",
"    i & o p p p p p p p p p j ( q r c d e e e d c s t 8 & i     ",
"    i & u v v v v v v v v w ) x r c d e e e d c r x 9 p & i     ",
"    y z A B B B B B B B u 8 C r c d e e e d c r C [ A A z y     ",
"    y D E F F F F F F G j H I c d e e e d c I H 9 G F E D y     ",
"    y J E K K K K K E o L I c d e e e d c I L j E K K E J y     ",
"    M N K O O O O P u Q I c d e e e d c R Q p P O O O K N M     ",
"    M S T U U U T A V W c d e e e d c W V A T U U U U T S M     ",
"    M X U Y Y Y K Z W c d e e e d c I ` E  .Y Y Y Y Y U X M     ",
"    M ..+.@.@.#.$.%.&.*.e e e d =.-.;.>.+.@.@.@.@.@.@.+...M     ",
"    M ,.@.'.+.u ).!.~.{.e e d =.].^.T /.'.'.'.'.'.'.'.@.,.M     ",
"    (._.:.:.<.[.}.|.1.2.{.d =.].3.#.:.4.4.4.4.4.4.4.4.:._.(.    ",
"    (.5.4.:.6.7.8.9.0.a.~.5 b.c.+.d.e.e.e.e.e.e.e.e.e.4.5.(.    ",
"    (.f.:.U g.h.d {.9.i.j.k.l.+.4.e.e.e.e.e.e.e.e.e.e.:.f.(.    ",
"    (.m.'.>.n.8.$ d 8.o.p.>.'.q.r.r.r.r.r.r.r.r.r.r.r.d.m.(.    ",
"    s.V t.u.v.8.8.w.x.y.#.z.A.A.A.A.A.A.A.A.A.A.A.A.A.e.V s.    ",
"    B.;.z.C.D.8.n.E.F.G.H.I.I.I.I.I.I.I.I.I.I.I.I.I.I.r.;.B.    ",
"    &.J.z.z.K.<.L.4.M.N.O.O.O.O.O.O.O.O.O.O.O.O.O.O.O.P.J.&.    ",
"    Q.R.<.H.H.H.A.A.N.N.N.N.N.N.N.N.N.N.N.N.N.N.N.N.H.<.R.Q.    ",
"      S.T.U.V.W.W.W.W.W.W.W.W.W.W.W.W.W.W.W.W.W.W.V.U.T.S.      ",
"        X.5 h.B.B.B.B.B.B.B.B.B.B.B.B.B.B.B.B.B.B.h.5 X.        ",
"                                                                ",
"                                                                ",
"                                                                "};
