/* XPM */
static char * ImageSave_xpm[] = {
"32 32 472 2",
"  	c None",
". 	c #1880B5",
"+ 	c #1481B6",
"@ 	c #127FB6",
"# 	c #127FB5",
"$ 	c #107EB5",
"% 	c #0379B3",
"& 	c #CECED6",
"* 	c #C2CAD4",
"= 	c #C0C9D4",
"- 	c #C1CAD6",
"; 	c #C9D3DF",
"> 	c #C8D1DC",
", 	c #C3CBD5",
"' 	c #1581B7",
") 	c #1B84B8",
"! 	c #439AC6",
"~ 	c #CDEAFF",
"{ 	c #CCE9FD",
"] 	c #CEEAFD",
"^ 	c #CFEAFD",
"/ 	c #CDEAFC",
"( 	c #C1E5FB",
"_ 	c #FFFEFD",
": 	c #E9F0F7",
"< 	c #E8F0F7",
"[ 	c #E9F1F8",
"} 	c #FFFFFF",
"| 	c #5D5D5F",
"1 	c #79838E",
"2 	c #6F7884",
"3 	c #EAF0F8",
"4 	c #CEEBFF",
"5 	c #0F7EB5",
"6 	c #D5EDFC",
"7 	c #0387D7",
"8 	c #0A8BD8",
"9 	c #0C8CD8",
"0 	c #098AD8",
"a 	c #0084D6",
"b 	c #FFFAFA",
"c 	c #CFDBE9",
"d 	c #CEDBE9",
"e 	c #CEDCE9",
"f 	c #CEDDEB",
"g 	c #F9FFFF",
"h 	c #585759",
"i 	c #7A838D",
"j 	c #707882",
"k 	c #F7FCFF",
"l 	c #CEDCEA",
"m 	c #D5EDFD",
"n 	c #117FB5",
"o 	c #CFEAFB",
"p 	c #0F8DD9",
"q 	c #1992DA",
"r 	c #1B93DB",
"s 	c #1891DA",
"t 	c #078AD8",
"u 	c #FDF9F7",
"v 	c #D4DFEA",
"w 	c #D2DEEB",
"x 	c #D3DFEB",
"y 	c #D3DFEC",
"z 	c #F5FCFF",
"A 	c #535354",
"B 	c #79828C",
"C 	c #707781",
"D 	c #F3FAFF",
"E 	c #CDEAFB",
"F 	c #0C7FB5",
"G 	c #CBE8FA",
"H 	c #1690DA",
"I 	c #2095DC",
"J 	c #2296DC",
"K 	c #1F94DC",
"L 	c #0E8DDA",
"M 	c #FBF6F6",
"N 	c #D8E2EC",
"O 	c #D6E2EC",
"P 	c #D7E3EE",
"Q 	c #F0FAFF",
"R 	c #4F4F4F",
"S 	c #7B828B",
"T 	c #70777E",
"U 	c #EDF7FD",
"V 	c #D8E3ED",
"W 	c #1591DB",
"X 	c #C4E8FA",
"Y 	c #007FB5",
"Z 	c #1380B6",
"` 	c #C4E5F9",
" .	c #1B93DC",
"..	c #2497DD",
"+.	c #2698DD",
"@.	c #2396DD",
"#.	c #128FDB",
"$.	c #F8F4F4",
"%.	c #DBE5EC",
"&.	c #D9E4EC",
"*.	c #DAE5EE",
"=.	c #ECF6FD",
"-.	c #474647",
";.	c #798086",
">.	c #6E757B",
",.	c #EAF3FA",
"'.	c #DCE6ED",
").	c #2397DD",
"!.	c #1694DD",
"~.	c #B3E7FA",
"{.	c #DF86BA",
"].	c #D786B8",
"^.	c #BFE2F9",
"/.	c #1F95DC",
"(.	c #2899DD",
"_.	c #2A9ADD",
":.	c #2799DD",
"<.	c #1792DB",
"[.	c #F7F3F2",
"}.	c #DFE7ED",
"|.	c #DDE6ED",
"1.	c #DDE7EE",
"2.	c #E4F0F6",
"3.	c #9CA5AC",
"4.	c #504E51",
"5.	c #99A2A7",
"6.	c #E3EFF5",
"7.	c #E0E8EE",
"8.	c #299ADD",
"9.	c #2499DF",
"0.	c #1498E2",
"a.	c #E484BA",
"b.	c #E6B0E4",
"c.	c #D7A6DA",
"d.	c #CC7BAB",
"e.	c #B8E0F8",
"f.	c #2C9BDE",
"g.	c #2E9CDE",
"h.	c #2B9BDE",
"i.	c #1D95DC",
"j.	c #F8F5F2",
"k.	c #E6EEF0",
"l.	c #E4EDF0",
"m.	c #E3EDF0",
"n.	c #E4EEF1",
"o.	c #E6EFF3",
"p.	c #EAF4F7",
"q.	c #ECF6FA",
"r.	c #E9F4F7",
"s.	c #E7EEF0",
"t.	c #2A9BDE",
"u.	c #289CE1",
"v.	c #1D9AE4",
"w.	c #B0A6A0",
"x.	c #979C97",
"y.	c #DCA2DB",
"z.	c #CE99D0",
"A.	c #C28FC8",
"B.	c #CA709F",
"C.	c #1480B6",
"D.	c #B3DDF8",
"E.	c #299ADE",
"F.	c #309DDF",
"G.	c #329EDF",
"H.	c #2799DE",
"I.	c #ADD4EB",
"J.	c #D2CED3",
"K.	c #CFCED4",
"L.	c #D0CFD5",
"M.	c #D0CED4",
"N.	c #269ADF",
"O.	c #2A9EE4",
"P.	c #209DEA",
"Q.	c #AFA5A2",
"R.	c #DBD7D7",
"S.	c #E6E9E7",
"T.	c #818986",
"U.	c #C98CCA",
"V.	c #BA84C1",
"W.	c #C86B98",
"X.	c #AFDAF6",
"Y.	c #2F9CDF",
"Z.	c #359FE0",
"`.	c #37A0E0",
" +	c #349EE0",
".+	c #2D9CE0",
"++	c #299BE0",
"@+	c #279BE0",
"#+	c #2C9CE1",
"$+	c #2D9FE6",
"%+	c #22A0F1",
"&+	c #DE7815",
"*+	c #ACAEB6",
"=+	c #E3E5E9",
"-+	c #C1C2C3",
";+	c #979C9A",
">+	c #727F7B",
",+	c #CD6A9A",
"'+	c #AAD8F5",
")+	c #339FE1",
"!+	c #39A1E1",
"~+	c #3BA2E1",
"{+	c #39A2E1",
"]+	c #38A1E1",
"^+	c #38A2E3",
"/+	c #33A2E8",
"(+	c #26A2F3",
"_+	c #D9771A",
":+	c #FFDF78",
"<+	c #FFF9D6",
"[+	c #939DAB",
"}+	c #969A9E",
"|+	c #6F7171",
"1+	c #6E7775",
"2+	c #A5D6F5",
"3+	c #3EA3E1",
"4+	c #3FA4E1",
"5+	c #3DA3E1",
"6+	c #3CA3E1",
"7+	c #3CA2E1",
"8+	c #3BA3E3",
"9+	c #37A5E9",
"0+	c #2AA5F4",
"a+	c #D8761B",
"b+	c #FFDE7A",
"c+	c #FFF6DE",
"d+	c #FFBF5F",
"e+	c #FF9A09",
"f+	c #747B88",
"g+	c #797576",
"h+	c #1581B6",
"i+	c #A0D5F5",
"j+	c #3DA3E2",
"k+	c #41A5E2",
"l+	c #40A4E2",
"m+	c #39A1E0",
"n+	c #339FE0",
"o+	c #319EDF",
"p+	c #309EDF",
"q+	c #319EE1",
"r+	c #2FA1E8",
"s+	c #579ABD",
"t+	c #D5761C",
"u+	c #FFBD62",
"v+	c #FF9713",
"w+	c #FF9216",
"x+	c #AE6924",
"y+	c #0A87C7",
"z+	c #9CD2F3",
"A+	c #42A6E3",
"B+	c #44A7E3",
"C+	c #B9DBF4",
"D+	c #CD721B",
"E+	c #FFDD7A",
"F+	c #FF9714",
"G+	c #FF9810",
"H+	c #D57D27",
"I+	c #8FD8FF",
"J+	c #1183BD",
"K+	c #99D1F3",
"L+	c #46A9E4",
"M+	c #48AAE4",
"N+	c #3CA5E2",
"O+	c #FFFAFE",
"P+	c #F1F4FC",
"Q+	c #EEF2FC",
"R+	c #EEF3FD",
"S+	c #EEF3FC",
"T+	c #EDF2FC",
"U+	c #EDF3FC",
"V+	c #EDF3FD",
"W+	c #EEF6FF",
"X+	c #EEFCFF",
"Y+	c #C36C17",
"Z+	c #FFDB79",
"`+	c #FF9911",
" @	c #D57D29",
".@	c #33AEFC",
"+@	c #94D2FB",
"@@	c #1481B7",
"#@	c #95CFF3",
"$@	c #4BABE5",
"%@	c #4CABE5",
"&@	c #3FA6E3",
"*@	c #FDF8FD",
"=@	c #EDF2FB",
"-@	c #F1F7FF",
";@	c #F0F6FF",
">@	c #EEF5FF",
",@	c #EDF3FE",
"'@	c #EDF5FF",
")@	c #ECFAFF",
"!@	c #C16C17",
"~@	c #FFDA79",
"{@	c #FF9910",
"]@	c #A36629",
"^@	c #589EC4",
"/@	c #44AEEE",
"(@	c #94CFF5",
"_@	c #93CEF3",
":@	c #50AEE5",
"<@	c #50ADE5",
"[@	c #43A8E3",
"}@	c #FDFAFC",
"|@	c #EBF1FB",
"1@	c #414347",
"2@	c #9FA4AC",
"3@	c #9DA1A9",
"4@	c #9B9FA6",
"5@	c #EFF7FF",
"6@	c #70747B",
"7@	c #EEFBFF",
"8@	c #C46C15",
"9@	c #FFDA77",
"0@	c #FFF5DD",
"a@	c #FF970F",
"b@	c #9D6227",
"c@	c #40B4FD",
"d@	c #4CB1EE",
"e@	c #4EAFE7",
"f@	c #1681B6",
"g@	c #90CEF2",
"h@	c #54B0E6",
"i@	c #54AFE6",
"j@	c #47AAE4",
"k@	c #FCF8FB",
"l@	c #EAF0FA",
"m@	c #EDF4FE",
"n@	c #F4FCFF",
"o@	c #F2FAFF",
"p@	c #F1F8FF",
"q@	c #EFF6FF",
"r@	c #EEF8FF",
"s@	c #CDBFAB",
"t@	c #DAB773",
"u@	c #FFFBEB",
"v@	c #FFBC5D",
"w@	c #FF9612",
"x@	c #FF960F",
"y@	c #945E26",
"z@	c #49AFEC",
"A@	c #54B1E8",
"B@	c #8DCCF3",
"C@	c #59B2E7",
"D@	c #58B2E7",
"E@	c #4CADE5",
"F@	c #FDF9FB",
"G@	c #E9EFF8",
"H@	c #434547",
"I@	c #A0A4AB",
"J@	c #9DA2A8",
"K@	c #9CA1A7",
"L@	c #9AA0A7",
"M@	c #EDF8FF",
"N@	c #C29F6B",
"O@	c #FFFDEF",
"P@	c #FBDEA9",
"Q@	c #FBB454",
"R@	c #FF950B",
"S@	c #925D25",
"T@	c #ECFCFF",
"U@	c #FFFEFF",
"V@	c #4CAEE7",
"W@	c #8BCBF2",
"X@	c #5DB5E8",
"Y@	c #5CB4E8",
"Z@	c #50AFE6",
"`@	c #FEFAFB",
" #	c #E6EEF7",
".#	c #EAF2FC",
"+#	c #F1F9FF",
"@#	c #F0F9FF",
"##	c #EDF6FF",
"$#	c #D4C6B0",
"%#	c #EBBE67",
"&#	c #FFE1A3",
"*#	c #F9C87A",
"=#	c #CB8D3D",
"-#	c #945B1F",
";#	c #E9FAFF",
">#	c #E7F1FE",
",#	c #FFFBFD",
"'#	c #8AC9F1",
")#	c #62B7EA",
"!#	c #61B6E9",
"~#	c #55B1E8",
"{#	c #E5ECF6",
"]#	c #E9F2FC",
"^#	c #424446",
"/#	c #9BA0A8",
"(#	c #ECF4FF",
"_#	c #70757B",
":#	c #F1FCFF",
"<#	c #7E6A4D",
"[#	c #7A6F55",
"}#	c #E8B45F",
"|#	c #A37131",
"1#	c #BFB5A6",
"2#	c #E7F6FF",
"3#	c #E5F0FC",
"4#	c #E5ECF7",
"5#	c #88CAF2",
"6#	c #68BBEC",
"7#	c #68BCED",
"8#	c #5BB5EA",
"9#	c #FFFCFD",
"0#	c #E4EBF5",
"a#	c #E8F0FA",
"b#	c #EAF3FD",
"c#	c #ECF5FF",
"d#	c #C8C3B9",
"e#	c #3D4145",
"f#	c #715D41",
"g#	c #CDBEAA",
"h#	c #E7F4FF",
"i#	c #E5F0FE",
"j#	c #E4EDF9",
"k#	c #E2EBF5",
"l#	c #E3EAF4",
"m#	c #87CAF2",
"n#	c #6FC0F0",
"o#	c #325B76",
"p#	c #61BAEE",
"q#	c #FFFDFD",
"r#	c #E1EAF4",
"s#	c #E5EFF9",
"t#	c #3F4244",
"u#	c #999FA6",
"v#	c #959CA2",
"w#	c #E8F2FD",
"x#	c #817C74",
"y#	c #C1BCB3",
"z#	c #EAF6FF",
"A#	c #E4EFFC",
"B#	c #E2ECF7",
"C#	c #E0EAF5",
"D#	c #E0E9F3",
"E#	c #85CAF2",
"F#	c #73C2F1",
"G#	c #325770",
"H#	c #65BCEF",
"I#	c #DFE9F3",
"J#	c #E1ECF6",
"K#	c #E5EFFA",
"L#	c #E3EEF8",
"M#	c #E2EDF8",
"N#	c #E4EFFA",
"O#	c #E3EEF9",
"P#	c #E1ECF7",
"Q#	c #DFEAF5",
"R#	c #DEE9F3",
"S#	c #DFE8F3",
"T#	c #85C8F3",
"U#	c #77C2F0",
"V#	c #76C3F1",
"W#	c #6ABCEE",
"X#	c #FFFFFD",
"Y#	c #DFE8F2",
"Z#	c #DFEAF4",
"`#	c #DEE8F2",
" $	c #DDE8F2",
".$	c #1882B7",
"+$	c #8BCDF6",
"@$	c #83C8F3",
"#$	c #81C7F3",
"$$	c #79C4F2",
"%$	c #1977A6",
"&$	c #0C7DB5",
"*$	c #0A7CB5",
"=$	c #097CB5",
"-$	c #097BB5",
";$	c #1C83B6",
"                                                                ",
"  . + @ # # $ % & * = = = - ;       > , & % $ # # @ ' )         ",
"  ! ~ { ] ^ / ( _ : < < < [ } | 1 2 } 3 _ ( / ^ ] { 4 '         ",
"  5 6 7 8 9 0 a b c d e d f g h i j k l b a 0 9 8 7 m n         ",
"  # o p q r s t u v w x w y z A B C D x u t s r q p E F         ",
"  @ G H I J K L M N O O O P Q R S T U V M L K J I W X Y         ",
"  Z `  ...+.@.#.$.%.&.&.&.*.=.-.;.>.,.'.$.#.@.+.).!.~.{.].      ",
"  Z ^./.(._.:.<.[.}.|.|.|.1.2.3.4.5.6.7.[.<.:.8.9.0.a.b.c.d.    ",
"  Z e...f.g.h.i.j.k.l.m.m.n.o.p.q.r.o.s.j.i.t.u.v.w.x.y.z.A.B.  ",
"  C.D.E.F.G.F.H.I.J.K.K.K.K.K.L.L.L.M.J.I.N.O.P.Q.R.S.T.U.V.W.  ",
"  C.X.Y.Z.`.`. +.+++@+@+@+@+@+@+@+@+@+++#+$+%+&+*+=+-+;+>+,+    ",
"  + '+)+!+~+~+~+{+!+!+!+!+!+!+!+!+!+]+^+/+(+_+:+<+[+}+|+1+      ",
"  + 2+]+3+4+5+6+6+7+7+7+7+7+7+7+7+6+8+9+0+a+b+c+d+e+f+g+        ",
"  h+i+j+k+l+m+n+o+o+o+o+o+o+p+p+p+q+r+s+t+b+c+u+v+w+x+y+        ",
"  h+z+A+B+5+C+} } } } } } } } } } } } D+E+c+u+F+G+H+I+J+        ",
"  h+K+L+M+N+O+P+Q+R+R+R+S+T+U+V+W+X+Y+Z+c+u+F+`+ @.@+@@@        ",
"  h+#@$@%@&@*@=@V+-@-@;@>@,@>@'@)@!@~@c+u+F+{@]@^@/@(@h+        ",
"  h+_@:@<@[@}@|@>@1@2@3@4@5@6@7@8@9@0@u+v+a@b@c@d@e@_@h+        ",
"  f@g@h@i@j@k@l@m@n@n@o@p@q@r@s@t@u@v@w@x@y@} z@A@h@g@f@        ",
"  f@B@C@D@E@F@G@m@H@I@J@K@L@M@N@O@P@Q@R@S@T@U@V@D@C@B@f@        ",
"  f@W@X@Y@Z@`@ #.#+#@###W+M@$#%#&#*#=#-#;#>#,#Z@Y@X@W@f@        ",
"  f@'#)#!#~#`@{#]#^#/#(#_#:#<#[#}#|#1#2#3#4#`@~#!#)#'#f@        ",
"  f@5#6#7#8#9#0#a#5@W+b#c#d#e#f#g#h#i#j#k#l#9#8#7#6#5#f@        ",
"  f@m#n#o#p#q#r#s#t#u#v#w#x#y#z#A#B#C#D#D#D#q#p#o#n#m#f@        ",
"  f@E#F#G#H#_ I#J#K#K#L#M#N#O#P#Q#I#I#I#R#S#_ H#G#F#E#f@        ",
"  f@T#U#V#W#X#Y#S#Z#Z#I#I#I#I#`#`#`#`#`# $`#X#W#V#U#T#f@        ",
"  .$+$@$#$$$} } } } } } } } } } } } } } } } } $$#$@$+$.$        ",
"  %$.$f@h+# &$*$=$=$=$=$=$=$=$=$=$=$=$=$-$=$&$# h+f@.$;$        ",
"                                                                ",
"                                                                ",
"                                                                ",
"                                                                "};
