/* XPM */
static char * search_xpm[] = {
"32 32 267 2",
"  	c None",
". 	c #ADAFAF",
"+ 	c #ADB0B0",
"@ 	c #ACAEAE",
"# 	c #ABAEAE",
"$ 	c #ABAEAD",
"% 	c #AAACAC",
"& 	c #FFFFFF",
"* 	c #E9E9E9",
"= 	c #A5A7A7",
"- 	c #DEDFE0",
"; 	c #DFE0E1",
"> 	c #A3A5A5",
", 	c #E7E7E7",
"' 	c #A4A7A7",
") 	c #E0E1E2",
"! 	c #E1E2E3",
"~ 	c #E2E3E4",
"{ 	c #EDEEEF",
"] 	c #E6E6E6",
"^ 	c #AAADAD",
"/ 	c #E3E4E5",
"( 	c #F5F5F6",
"_ 	c #E9EAEB",
": 	c #A9ACAC",
"< 	c #E4E5E6",
"[ 	c #FCFCFB",
"} 	c #F2F2F3",
"| 	c #E5E6E6",
"1 	c #E6E7E7",
"2 	c #E4E6E5",
"3 	c #ABADAD",
"4 	c #E7E8E8",
"5 	c #E5E7E6",
"6 	c #CACBCB",
"7 	c #A2A5A5",
"8 	c #E7E8E9",
"9 	c #E8E9EA",
"0 	c #F3F2F4",
"a 	c #E7E9EA",
"b 	c #EAEAEB",
"c 	c #EBEBEC",
"d 	c #ECEBEC",
"e 	c #ECECED",
"f 	c #EEEEEF",
"g 	c #F0EFF0",
"h 	c #F4F3F4",
"i 	c #F4F4F5",
"j 	c #EFEFF0",
"k 	c #EDEDEE",
"l 	c #ECEEED",
"m 	c #EDEEEE",
"n 	c #EDEFEE",
"o 	c #F0F1F0",
"p 	c #F3F4F4",
"q 	c #D7D8D9",
"r 	c #A0A2A3",
"s 	c #7A7C7D",
"t 	c #7B7C7E",
"u 	c #7A7B7D",
"v 	c #D6D7D8",
"w 	c #EEEFEE",
"x 	c #EEEFEF",
"y 	c #F1F2F1",
"z 	c #F6F7F7",
"A 	c #A8A9AA",
"B 	c #8C8C8D",
"C 	c #DBD9D5",
"D 	c #DBD8D5",
"E 	c #8B8B8D",
"F 	c #AFB0B1",
"G 	c #AEB0B0",
"H 	c #EFF0F1",
"I 	c #F1F2F3",
"J 	c #949495",
"K 	c #FDFCFD",
"L 	c #AED1F0",
"M 	c #5AA2DD",
"N 	c #539FDC",
"O 	c #58A4DE",
"P 	c #67ADE1",
"Q 	c #B8DAF4",
"R 	c #939394",
"S 	c #BDBDC0",
"T 	c #B2B4B4",
"U 	c #F1F1F2",
"V 	c #F2F1F2",
"W 	c #D8D9DA",
"X 	c #878889",
"Y 	c #F8F9F9",
"Z 	c #6EACE1",
"` 	c #9FC9EB",
" .	c #DDECF9",
"..	c #D2E8F7",
"+.	c #C1DEF4",
"@.	c #AAD4EF",
"#.	c #79BBE8",
"$.	c #87C3EB",
"%.	c #FFFFFC",
"&.	c #A7A9AA",
"*.	c #F3F3F4",
"=.	c #F9F9FA",
"-.	c #9D9F9F",
";.	c #D1CECD",
">.	c #AACEEC",
",.	c #A0CAEB",
"'.	c #E5F1FB",
").	c #CFE6F6",
"!.	c #BEDFF3",
"~.	c #AFDAF1",
"{.	c #A1D4EF",
"].	c #87C8EC",
"^.	c #77BFE9",
"/.	c #BEDFF5",
"(.	c #D4D0D0",
"_.	c #909092",
":.	c #F5F6F6",
"<.	c #FCFDFD",
"[.	c #717174",
"}.	c #FCF8F3",
"|.	c #BDDFF4",
"1.	c #B1DBF2",
"2.	c #A5D8F2",
"3.	c #96D3F0",
"4.	c #87CDEF",
"5.	c #84CAEE",
"6.	c #81C8EE",
"7.	c #FDF8F5",
"8.	c #7D7D7F",
"9.	c #F4F5F5",
"0.	c #FEFFFF",
"a.	c #6F6F72",
"b.	c #FFFCF9",
"c.	c #55A1DD",
"d.	c #D3E9F8",
"e.	c #A6DAF2",
"f.	c #9BD9F3",
"g.	c #91D8F3",
"h.	c #93D8F3",
"i.	c #8FD5F2",
"j.	c #82CDF1",
"k.	c #FFFBF9",
"l.	c #7B7B7D",
"m.	c #F6F6F6",
"n.	c #F8F8F8",
"o.	c #6D6E70",
"p.	c #FEF9F5",
"q.	c #5BA6E0",
"r.	c #C2DFF4",
"s.	c #B0DAF1",
"t.	c #95DCF5",
"u.	c #9BE2F7",
"v.	c #9DE3F7",
"w.	c #97DDF5",
"x.	c #89D5F4",
"y.	c #FEF7F5",
"z.	c #797A7B",
"A.	c #F7F7F9",
"B.	c #F7F7F8",
"C.	c #6B6B6E",
"D.	c #F0ECE9",
"E.	c #67AEE3",
"F.	c #ABD4F0",
"G.	c #A2D4EF",
"H.	c #9BE1F7",
"I.	c #A5EBFC",
"J.	c #A6ECFD",
"K.	c #9BE4F9",
"L.	c #94DCF7",
"M.	c #F0EBEA",
"N.	c #78787B",
"O.	c #F8F8FA",
"P.	c #F8F8F9",
"Q.	c #999A9A",
"R.	c #C0BEBD",
"S.	c #ABCEE8",
"T.	c #7BBDE9",
"U.	c #88CDEF",
"V.	c #A7EEFE",
"W.	c #9AE6FB",
"X.	c #C1E5F2",
"Y.	c #C2C0C0",
"Z.	c #8A8C8D",
"`.	c #F9FBFB",
" +	c #F9FAFA",
".+	c #DDDEDF",
"++	c #78787A",
"@+	c #84C0E8",
"#+	c #78C1EB",
"$+	c #85CCEF",
"%+	c #90D5F3",
"&+	c #97DEF6",
"*+	c #9BE4FA",
"=+	c #9BE6FB",
"-+	c #A4E2F8",
";+	c #E7E3E2",
">+	c #7D7E7F",
",+	c #8D9094",
"'+	c #FCFCFC",
")+	c #FBFBFB",
"!+	c #FDFDFD",
"~+	c #A1A1A4",
"{+	c #7F7F80",
"]+	c #E5E1DE",
"^+	c #AFD2E8",
"/+	c #82C9EF",
"(+	c #84CFF3",
"_+	c #8BD7F6",
":+	c #93DCF8",
"<+	c #BEE1EF",
"[+	c #E5E0DF",
"}+	c #838384",
"|+	c #A5A5A8",
"1+	c #DFE3E6",
"2+	c #8D96A4",
"3+	c #ABABAD",
"4+	c #727374",
"5+	c #B6B4B3",
"6+	c #DFDBD9",
"7+	c #E7E2E0",
"8+	c #E6E2E0",
"9+	c #DEDAD9",
"0+	c #B7B6B5",
"a+	c #7B7B7C",
"b+	c #838588",
"c+	c #C2C4C7",
"d+	c #E5EAF0",
"e+	c #EBDCB9",
"f+	c #C58E3A",
"g+	c #FEFEFE",
"h+	c #E1E0E1",
"i+	c #97989A",
"j+	c #616164",
"k+	c #626265",
"l+	c #626165",
"m+	c #9C9D9F",
"n+	c #6B6C6F",
"o+	c #93979B",
"p+	c #9BA3AD",
"q+	c #D7C19E",
"r+	c #FFE7AC",
"s+	c #FFD870",
"t+	c #C38E40",
"u+	c #696E76",
"v+	c #BE9A6C",
"w+	c #FFAA1F",
"x+	c #FFC25C",
"y+	c #FFE7B5",
"z+	c #FFDA73",
"A+	c #C89242",
"B+	c #AEAFAF",
"C+	c #B0B2B3",
"D+	c #B3B9BD",
"E+	c #AB7A3A",
"F+	c #F39A26",
"G+	c #FFAA28",
"H+	c #FFC35F",
"I+	c #FFECB8",
"J+	c #C59041",
"K+	c #A77C44",
"L+	c #FFA41D",
"M+	c #FFAD28",
"N+	c #D2AA5B",
"O+	c #C49045",
"P+	c #A77F4A",
"Q+	c #A87F4B",
"R+	c #AA8049",
"    . + @ # # # # # # # # # # # $ # . %                         ",
"    . & & & & & & & & & & & & & & & & * =                       ",
"    @ & - ; ; ; ; ; ; ; ; ; ; ; - & > & , '                     ",
"    # & ) ! ~ ~ ~ ~ ~ ~ ~ ~ ~ ! ) & ' { & ] ^                   ",
"    # & ! / / / / / / / / / / / ! & = ( _ & ] :                 ",
"    # & ~ < < < < < < < < < < < ~ & = [ } _ & , ^               ",
"    # & | 1 1 1 1 1 1 1 1 1 1 1 2 & ' & [ ( { & * .             ",
"    3 & 1 4 4 4 4 4 4 4 4 4 4 4 5 & 6 ' = = ' 7 & .             ",
"    3 & 8 9 9 9 9 9 9 9 9 9 9 9 8 0 & & & & & & & #             ",
"    3 & 9 _ _ _ _ _ _ _ _ _ _ _ _ 9 a a 9 9 8 8 & 3             ",
"    3 & b c c c c c c c c c c d e e e e e e c b & 3             ",
"    3 & c e e e e e e e e e f g } h i i h } j k & 3             ",
"    3 & l m m m m m m m n o p q r s t t u r v p & @             ",
"    3 & w x x x x x x x y z A B C & & & & D E F & G             ",
"    3 & H H H H H H H I z F J K L M N O P Q & R S T             ",
"    3 & U U U U U U V ( W X Y Z `  ...+.@.#.$.%.E &.            ",
"    3 & } } } } } } *.=.-.;.>.,.'.).!.~.{.].^./.(._.            ",
"    3 & p p p p p p :.<.[.}.M  .).|.1.2.3.4.5.6.7.8.            ",
"    3 & 9.9.9.9.9.9.z 0.a.b.c.d.!.1.e.f.g.h.i.j.k.l.            ",
"    3 & m.m.m.m.m.m.n.& o.p.q.r.s.2.f.t.u.v.w.x.y.z.            ",
"    3 & A.B.B.B.B.B.=.& C.D.E.F.G.3.g.H.I.J.K.L.M.N.            ",
"    3 & O.P.P.P.P.P.=.& Q.R.S.T.].U.h.v.J.V.W.X.Y.Z.            ",
"    3 & `. + + + + +`.0..+++) @+#+$+%+&+*+=+-+;+>+,+            ",
"    3 & '+)+)+)+)+)+)+!+& ~+{+]+^+/+(+_+:+<+[+}+|+1+2+          ",
"    3 & !+'+'+'+'+'+'+'+& & 3+4+5+6+7+8+9+0+a+b+c+d+e+f+        ",
"    # & & g+g+g+g+g+g+g+& & & h+i+j+k+k+l+m+n+o+p+q+r+s+t+      ",
"    + & & & & & & & & & & & & & & & & & & & & u+v+w+x+y+z+A+    ",
"    B+. # 3 3 3 3 3 3 3 3 3 3 @ . . . . . + C+D+E+F+G+H+I+J+    ",
"                                                  K+L+M+N+O+    ",
"                                                    P+Q+R+      ",
"                                                                ",
"                                                                "};
